<?xml version="1.0" encoding="UTF-8"?>
<svg id="Layer_1" data-name="Layer 1" xmlns="http://www.w3.org/2000/svg" viewBox="0 0 128 128">
  <defs>
    <style>
      .cls-1 {
        stroke-linecap: round;
        stroke-linejoin: round;
      }

      .cls-1, .cls-2 {
        fill: none;
        stroke: #0072cc;
        stroke-width: 4px;
      }

      .cls-2 {
        stroke-miterlimit: 10;
      }
    </style>
  </defs>
  <path class="cls-2" d="M10.81,14.77s27.78,6.47,51.82-11.37c0,0,19.91,15.93,51.62,12.51,0,0,21.05,79.73-51.72,109.12,0,0-66.36-14.58-51.72-110.26Z"/>
  <rect class="cls-2" x="40.15" y="48.36" width="44.78" height="39.18" rx="7.5" ry="7.5"/>
  <circle class="cls-2" cx="62.59" cy="65.5" r="4.64"/>
  <path class="cls-2" d="M48.46,48.01c-.56-1.57-.86-3.26-.86-5.02,0-8.28,6.71-14.99,14.99-14.99s14.99,6.71,14.99,14.99c0,2.06-.42,4.02-1.17,5.81"/>
  <line class="cls-1" x1="62.63" y1="71.36" x2="62.63" y2="79.01"/>
</svg>
