<?xml version="1.0" encoding="UTF-8"?>
<svg id="Layer_1" data-name="Layer 1" xmlns="http://www.w3.org/2000/svg" viewBox="0 0 128 128">
  <defs>
    <style>
      .cls-1 {
        stroke-width: 2px;
      }

      .cls-1, .cls-2 {
        fill: none;
        stroke: #0072cc;
        stroke-linecap: round;
        stroke-linejoin: round;
      }

      .cls-2 {
        stroke-width: 3px;
      }
    </style>
  </defs>
  <polyline class="cls-2" points="54.38 61.89 60.32 68.13 73.73 54.06"/>
  <path class="cls-2" d="M27.94,58.35l4.59-6.33c.59-.81.9-1.78.9-2.78v-7.59c0-2.2,1.51-4.11,3.65-4.61l6.03-1.42c1.17-.28,2.19-.99,2.86-1.99l4.01-6.04c1.23-1.84,3.57-2.59,5.63-1.8l6.71,2.56c1.1.42,2.32.41,3.42-.02l6.52-2.57c1.99-.78,4.25-.14,5.53,1.57l5.01,6.7c.56.75,1.33,1.32,2.22,1.63l7.15,2.53c1.89.67,3.16,2.46,3.16,4.47v7.22c0,1.02.33,2.02.95,2.84l3.84,5.12c1.14,1.52,1.26,3.58.3,5.22l-4.08,7.02c-.35.6-.56,1.26-.62,1.95l-.71,7.61c-.17,1.81-1.35,3.36-3.05,4l-6.41,2.4c-.8.3-1.51.82-2.05,1.49l-5.03,6.32c-1.08,1.35-2.81,2.01-4.51,1.72l-8.07-1.39c-.73-.13-1.47-.08-2.18.13l-7.45,2.25c-1.81.55-3.77-.03-4.99-1.48l-4.91-5.81c-.51-.61-1.18-1.08-1.92-1.36l-7.56-2.9c-1.76-.67-2.95-2.32-3.03-4.2l-.36-7.78c-.04-.91-.34-1.78-.87-2.52l-4.71-6.63c-1.18-1.66-1.17-3.88.03-5.52Z"/>
  <circle class="cls-2" cx="64.05" cy="61.1" r="19.37"/>
  <g>
    <polygon class="cls-1" points="47.21 18.29 47.09 12.74 42.01 9.77 47.34 7.33 49.12 1.77 52.83 6.12 58.34 6.22 55.76 11.18 57.67 16.15 52.29 15.24 47.21 18.29"/>
    <polygon class="cls-1" points="24.39 34.98 22.65 29.7 16.93 28.35 21.31 24.46 21.4 18.62 26.22 21.7 31.51 20.19 30.5 25.69 33.77 29.89 28.36 30.59 24.39 34.98"/>
    <polygon class="cls-1" points="72.11 16.36 74.24 11.23 70.79 6.46 76.65 6.38 80.53 2.02 82.16 7.5 87.16 9.81 82.8 13.31 82.53 18.62 77.98 15.62 72.11 16.36"/>
    <polygon class="cls-1" points="94.51 31.35 98.26 27.25 96.63 21.6 102.17 23.51 107.3 20.72 106.97 26.43 110.89 30.3 105.6 32.11 103.55 37.02 100.29 32.65 94.51 31.35"/>
  </g>
  <g>
    <polyline class="cls-2" points="41.13 87.32 31.22 118.93 44.82 112.14 51.76 125.3 62.25 95.57"/>
    <polyline class="cls-2" points="65.45 94.33 76.67 125.5 83.4 111.86 96.88 118.15 87.26 88.13"/>
  </g>
</svg>
