<?xml version="1.0" encoding="UTF-8"?>
<svg id="Layer_1" data-name="Layer 1" xmlns="http://www.w3.org/2000/svg" viewBox="0 0 128 128">
  <defs>
    <style>
      .cls-1 {
        stroke-width: 4px;
      }

      .cls-1, .cls-2 {
        fill: none;
        stroke: #0072cc;
        stroke-linecap: round;
        stroke-linejoin: round;
      }

      .cls-2 {
        stroke-width: 3px;
      }
    </style>
  </defs>
  <path class="cls-1" d="M16.3,31.41l6.55-6.7c1.6-1.63,4.13-1.9,6.03-.62l3.87,2.59c1.32.88,2.98,1.05,4.45.44l6.58-2.72c1.3-.54,2.3-1.63,2.72-2.97l2.1-6.74c.62-2,2.48-3.35,4.58-3.33l8.92.1c2.12.02,3.97,1.45,4.52,3.5l1.73,6.38c.38,1.39,1.37,2.54,2.7,3.11l6.11,2.64c1.28.55,2.74.51,3.99-.11l5.42-2.7c1.81-.9,3.98-.56,5.43.85l6.81,6.65c1.5,1.47,1.86,3.76.87,5.61l-2.68,5.05c-.64,1.21-.73,2.64-.24,3.91l2.48,6.49c.51,1.33,1.58,2.36,2.93,2.81l5.44,1.81c1.95.65,3.26,2.49,3.24,4.55l-.11,9.46c-.02,2.13-1.47,3.99-3.53,4.53l-4.84,1.27c-1.38.36-2.53,1.33-3.11,2.64l-3.17,7.02c-.59,1.31-.55,2.82.1,4.11l2.65,5.18c.93,1.83.59,4.04-.86,5.5l-6.29,6.34c-1.51,1.52-3.86,1.84-5.72.77l-4.99-2.87c-1.26-.72-2.78-.83-4.13-.29l-6.56,2.64c-1.37.55-2.4,1.71-2.8,3.13l-1.55,5.61c-.57,2.07-2.47,3.5-4.62,3.47l-9.22-.1c-2.25-.03-4.17-1.62-4.6-3.83l-.95-4.87c-.29-1.5-1.29-2.76-2.67-3.4l-6.74-3.09c-1.36-.62-2.92-.57-4.24.14l-5,2.71c-1.85,1-4.14.66-5.62-.83l-6.53-6.58c-1.55-1.56-1.82-3.97-.66-5.84l2.77-4.46c.79-1.28.93-2.85.38-4.25l-2.75-6.92c-.55-1.39-1.72-2.43-3.16-2.82l-5.29-1.43c-2.08-.57-3.52-2.47-3.5-4.63l.11-9.49c.02-2.17,1.53-4.05,3.64-4.56l5.11-1.22c1.47-.35,2.69-1.38,3.27-2.77l2.73-6.48c.57-1.35.48-2.88-.23-4.15l-2.59-4.62c-1.03-1.83-.72-4.12.75-5.63Z"/>
  <circle class="cls-1" cx="57.58" cy="65.53" r="30.81"/>
  <path class="cls-1" d="M41.23,65.47l10.05,9.98c.22.22.58.22.81,0l21.6-20.95"/>
  <circle class="cls-2" cx="111.6" cy="13.48" r="6.94"/>
  <line class="cls-1" x1="105.68" y1="18.08" x2="94.64" y2="27.88"/>
  <circle class="cls-2" cx="118.17" cy="39.27" r="6.94"/>
  <line class="cls-1" x1="112.25" y1="43.87" x2="101.21" y2="53.67"/>
</svg>
