<?xml version="1.0" encoding="UTF-8"?>
<svg id="Layer_2" data-name="Layer 2" xmlns="http://www.w3.org/2000/svg" viewBox="0 0 617.7 250.64">
  <defs>
    <style>
      .cls-1 {
        fill: #fff;
      }
    </style>
  </defs>
  <g id="Layer_1-2" data-name="Layer 1">
    <g>
      <path class="cls-1" d="M97.45,57.86c-1.47-2.13-3.18-3.98-5.07-5.49-1.94-1.54-4-2.84-6.13-3.85-2.14-1.01-4.32-1.77-6.47-2.25-2.18-.49-4.25-.76-6.17-.8H28.69c-4.41,0-7.95-1.36-10.52-4.06-2.54-2.66-3.82-6.24-3.82-10.66s1.28-7.94,3.79-10.67c2.57-2.79,6.12-4.2,10.55-4.2h63.77V1.54H28.69c-2.88,0-6.05.53-9.44,1.57-3.32,1.02-6.45,2.71-9.3,5.01-2.83,2.29-5.23,5.31-7.13,9-1.87,3.64-2.82,8.22-2.82,13.63s.95,10.01,2.83,13.67c1.9,3.71,4.29,6.73,7.11,8.99,2.86,2.29,5.99,3.96,9.31,4.98,3.39,1.04,6.56,1.57,9.44,1.57h44.83c2.12,0,4.1.37,5.88,1.09,1.81.74,3.38,1.81,4.66,3.18,1.26,1.35,2.23,2.95,2.9,4.77.65,1.78.98,3.74.98,5.84,0,4.36-1.28,7.93-3.81,10.61-2.57,2.73-6.14,4.11-10.61,4.11H.9v14.34h72.62c1.91,0,3.99-.23,6.18-.69,2.18-.46,4.35-1.18,6.47-2.15,2.11-.96,4.19-2.23,6.17-3.75,1.92-1.47,3.62-3.29,5.06-5.4,1.45-2.13,2.64-4.64,3.53-7.46.89-2.81,1.34-6.04,1.34-9.61s-.44-6.79-1.31-9.58c-.87-2.78-2.05-5.27-3.52-7.4Z"/>
      <path class="cls-1" d="M179.97,104.51c2.26,1.23,4.98,1.17,7.25-.02,1.07-.56,1.89-1.37,2.5-2.48l39.39-69.3v71.19h14.49V7.29c0-1.68-.49-3.13-1.49-4.43-1.01-1.31-2.27-2.17-3.84-2.62-1.6-.4-3.16-.31-4.68.29-1.5.59-2.65,1.57-3.5,2.99l-46.58,80.97L136.89,3.47c-.4-.69-.88-1.27-1.45-1.75-.58-.49-1.22-.87-1.93-1.14-.73-.28-1.51-.45-2.3-.51-.78-.05-1.58.01-2.37.2-1.51.42-2.77,1.27-3.76,2.57-.99,1.3-1.47,2.76-1.47,4.44v96.61h14.34V32.75l39.52,69.22c.63,1.16,1.44,1.97,2.48,2.54Z"/>
      <path class="cls-1" d="M357.38,103.9h14.34V8.79c0-1.01-.18-1.94-.55-2.84-.37-.89-.88-1.65-1.54-2.32-.66-.66-1.42-1.17-2.32-1.54-.89-.37-1.82-.55-2.83-.55h-43.93c-7.38,0-14.26,1.27-20.48,3.79-6.2,2.51-11.64,6.05-16.17,10.54-4.53,4.48-8.12,9.92-10.67,16.16-2.56,6.26-3.86,13.22-3.86,20.69v51.18h14.34v-26.39h73.67v26.39ZM283.71,63.17v-10.45c0-5.75.83-10.75,2.47-14.86,1.63-4.1,3.76-7.58,6.31-10.35,2.54-2.76,5.38-4.96,8.43-6.54,2.94-1.52,5.79-2.67,8.48-3.42,2.66-.74,5.06-1.21,7.13-1.4,2.7-.24,3.59-.27,4.02-.27h36.83v47.28h-73.67Z"/>
      <path class="cls-1" d="M482.33,15.97c.88.09,1.71.39,2.48.88.83.54,1.5,1.32,1.98,2.32.45.94.66,2.12.66,3.62v12.29c0,2.87-.47,5.48-1.39,7.75-.93,2.3-2.29,4.31-4.02,5.96-1.7,1.62-3.74,2.91-6.05,3.85-2.26.92-4.78,1.5-7.47,1.72h-41.72v14.35h12.4l40.63,35.16h22.26l-40.71-35.16h6.92c2.22,0,4.63-.26,7.17-.77,2.52-.51,5.05-1.34,7.53-2.48,2.48-1.14,4.9-2.61,7.18-4.38,2.23-1.73,4.24-3.85,5.95-6.3,1.71-2.44,3.1-5.32,4.11-8.55,1.02-3.23,1.53-6.98,1.53-11.15v-12.44c0-2.14-.38-4.49-1.13-6.98-.73-2.42-1.94-4.72-3.6-6.83-1.64-2.08-3.82-3.84-6.49-5.24-2.61-1.37-5.92-2.07-9.83-2.07h-73.99c-1.06,0-2.02.18-2.91.55-.88.37-1.62.86-2.25,1.52-.65.67-1.15,1.44-1.53,2.34-.37.89-.55,1.82-.55,2.83v95.11h14.34V15.89h66.9c.48,0,1.01.03,1.58.09Z"/>
      <polygon class="cls-1" points="517.36 15.89 560.4 15.89 560.4 103.9 574.74 103.9 574.74 15.89 617.7 15.89 617.7 1.54 517.36 1.54 517.36 15.89"/>
      <path class="cls-1" d="M97.45,204.6c-1.47-2.13-3.18-3.98-5.07-5.49-1.94-1.54-4-2.84-6.13-3.85-2.14-1.01-4.32-1.77-6.47-2.25-2.18-.49-4.25-.76-6.17-.8H28.69c-4.41,0-7.95-1.36-10.52-4.06-2.54-2.66-3.82-6.24-3.82-10.66s1.28-7.94,3.79-10.67c2.57-2.79,6.12-4.2,10.55-4.2h63.77v-14.34H28.69c-2.88,0-6.05.53-9.44,1.57-3.32,1.02-6.45,2.71-9.3,5.01-2.83,2.29-5.23,5.31-7.13,9-1.87,3.64-2.82,8.22-2.82,13.63s.95,10.01,2.83,13.67c1.9,3.71,4.29,6.73,7.11,8.99,2.86,2.29,5.99,3.96,9.31,4.98,3.39,1.04,6.56,1.57,9.44,1.57h44.83c2.12,0,4.1.37,5.88,1.09,1.81.74,3.38,1.81,4.66,3.18,1.26,1.35,2.23,2.95,2.9,4.77.65,1.78.98,3.74.98,5.84,0,4.36-1.28,7.93-3.81,10.61-2.57,2.73-6.14,4.11-10.61,4.11H.9v14.34h72.62c1.91,0,3.99-.23,6.18-.69,2.18-.46,4.35-1.18,6.47-2.15,2.11-.96,4.19-2.23,6.17-3.75,1.92-1.47,3.62-3.29,5.06-5.4,1.45-2.13,2.64-4.64,3.53-7.46.89-2.81,1.34-6.04,1.34-9.61s-.44-6.79-1.31-9.58c-.87-2.78-2.05-5.27-3.52-7.4Z"/>
      <polygon class="cls-1" points="157.21 250.64 171.56 250.64 171.56 162.63 214.51 162.63 214.51 148.28 114.18 148.28 114.18 162.63 157.21 162.63 157.21 250.64"/>
      <path class="cls-1" d="M316.22,250.64h14.34v-95.11c0-1.01-.18-1.94-.55-2.84-.37-.89-.88-1.65-1.54-2.32-.66-.66-1.42-1.17-2.32-1.54-.89-.37-1.82-.55-2.83-.55h-43.93c-7.38,0-14.26,1.27-20.48,3.79-6.2,2.51-11.64,6.05-16.17,10.54-4.53,4.48-8.12,9.92-10.67,16.16-2.56,6.26-3.86,13.22-3.86,20.69v51.18h14.34v-26.39h73.67v26.39ZM242.55,209.91v-10.45c0-5.75.83-10.75,2.47-14.86,1.63-4.1,3.76-7.58,6.31-10.35,2.54-2.76,5.38-4.96,8.43-6.54,2.94-1.52,5.79-2.67,8.48-3.42,2.66-.74,5.06-1.21,7.13-1.4,2.7-.24,3.59-.27,4.02-.27h36.83v47.28h-73.67Z"/>
      <path class="cls-1" d="M427.15,215.48c2.22,0,4.63-.26,7.17-.77,2.52-.51,5.05-1.34,7.53-2.48,2.48-1.14,4.9-2.61,7.18-4.38,2.23-1.73,4.24-3.85,5.95-6.3,1.71-2.44,3.1-5.32,4.11-8.55,1.02-3.23,1.53-6.98,1.53-11.15v-12.44c0-2.14-.38-4.49-1.13-6.98-.73-2.42-1.94-4.72-3.6-6.83-1.64-2.08-3.82-3.84-6.49-5.24-2.61-1.37-5.92-2.07-9.83-2.07h-73.99c-1.06,0-2.02.18-2.91.55-.88.37-1.62.86-2.25,1.52-.65.67-1.15,1.44-1.53,2.34-.37.89-.55,1.82-.55,2.83v95.11h14.34v-88.01h66.9c.48,0,1.01.03,1.58.09.88.09,1.71.39,2.48.88.83.54,1.5,1.32,1.98,2.32.45.94.66,2.12.66,3.62v12.29c0,2.87-.47,5.48-1.39,7.75-.93,2.3-2.29,4.31-4.02,5.96-1.7,1.62-3.74,2.91-6.05,3.85-2.26.92-4.78,1.5-7.47,1.72h-41.72v14.35h12.4l40.63,35.16h22.26l-40.71-35.16h6.92Z"/>
      <polygon class="cls-1" points="519.24 250.64 533.58 250.64 533.58 162.63 576.54 162.63 576.54 148.28 476.21 148.28 476.21 162.63 519.24 162.63 519.24 250.64"/>
    </g>
  </g>
</svg>
