<?xml version="1.0" encoding="UTF-8"?>
<svg id="Layer_2" data-name="Layer 2" xmlns="http://www.w3.org/2000/svg" viewBox="0 0 401.17 194.21">
  <defs>
    <style>
      .cls-1 {
        fill: #0096ff;
      }

      .cls-1, .cls-2 {
        stroke-width: 0px;
      }

      .cls-2 {
        fill: #7e8090;
      }
    </style>
  </defs>
  <g id="Layer_1-2" data-name="Layer 1">
    <g id="g29">
      <g id="g13">
        <path id="path12" class="cls-1" d="M270.51,61.1c0,1.88.65,3.59,1.75,4.96h0c-2.04.64-4.09,1.25-6.13,1.85-3.08.91-6.17,1.78-9.27,2.63-19.37,5.26-39.04,9.26-58.85,12.01h-.02c-7.09.98-14.19,1.79-21.31,2.44h-.01c-13.86,1.28-27.79,1.94-41.7,1.96h-1.01c-69.39,0-115.49-15.8-115.95-15.96-1.61-.56-2.44-2.31-1.89-3.9.56-1.61,2.31-2.45,3.9-1.89.45.16,45.66,15.62,113.94,15.62h1.25c6.39-.01,13.14-.17,20.18-.52h.01c6.85-.33,13.99-.82,21.38-1.53,26.3-2.49,55.92-7.58,87.61-16.87h0c2.06-.6,4.12-1.23,6.2-1.86-.05.34-.07.7-.07,1.07Z"/>
        <path id="path13" class="cls-1" d="M399.78,5.63c-34.2,22.44-70.16,40.44-107.3,53.7-2,.72-4.02,1.44-6.04,2.11.01-.11.01-.23.01-.34,0-2.13-.85-4.07-2.22-5.5,2.02-.69,4.06-1.4,6.1-2.12h0c33.96-12.08,69.77-29.15,106.08-52.97,1.41-.93,3.31-.54,4.24.88.93,1.41.54,3.31-.88,4.24Z"/>
      </g>
      <g id="g15">
        <path id="path14" class="cls-2" d="M41.33,34.18c1.84,1.03,3.74,2.09,5.71,3.15-1.73,1.19-2.97,3.02-3.35,5.15-1.9-1.03-3.74-2.06-5.52-3.07C14.24,25.93,1.32,15.42,1.12,15.25c-1.3-1.08-1.5-3.01-.42-4.32,1.08-1.31,3.01-1.5,4.32-.42.21.17,12.84,10.44,36.31,23.67Z"/>
        <path id="path15" class="cls-2" d="M369.16,91.97c-32.45,5.45-63.08,7.73-91.63,7.73-.54,0-1.08,0-1.62-.01-5.99-.01-11.88-.12-17.68-.34-29.79-1.08-57.07-4.59-81.57-9.45-7.35-1.45-14.44-3.02-21.27-4.69-21.14-5.14-39.79-11.16-55.72-17.16-13.57-5.12-25.87-10.48-36.81-15.74-1.94-.93-3.83-1.86-5.68-2.77,1.44-1.44,2.32-3.42,2.32-5.61v-.1c1.9.96,3.86,1.91,5.86,2.87,10.89,5.25,23.16,10.6,36.73,15.7,20.51,7.73,45.58,15.45,74.69,21.27,6.85,1.37,13.92,2.64,21.22,3.78,23.44,3.66,49.12,5.96,76.82,6.1,5.86.04,11.83-.04,17.89-.21,23.81-.67,49.01-2.99,75.44-7.42,1.68-.28,3.25.85,3.53,2.52.27,1.68-.86,3.26-2.53,3.53Z"/>
      </g>
      <g id="g16">
        <path id="path16" class="cls-2" d="M204.92,145.96c-12.25,0-24.47-.6-36.66-1.81-1.69-.17-2.92-1.67-2.75-3.35.17-1.69,1.65-2.91,3.35-2.75,61.72,6.1,124.42-3.54,186.38-28.64,1.57-.63,3.36.12,3.99,1.69.64,1.57-.12,3.36-1.69,3.99-50.66,20.53-101.84,30.86-152.62,30.86Z"/>
      </g>
      <g id="g18">
        <path id="path17" class="cls-1" d="M55.08,106.9c1.85.9,3.83,1.83,5.93,2.77-1.66,1.21-2.74,3.19-2.74,5.41v.11c-2.07-.93-4.02-1.85-5.86-2.74h0c-12.83-6.18-19.86-10.81-20.37-11.14-1.41-.93-1.8-2.83-.86-4.24.93-1.41,2.83-1.8,4.24-.87.12.09,7.02,4.61,19.65,10.7Z"/>
        <path id="path18" class="cls-1" d="M94.54,125.85c-.43,1.29-1.63,2.1-2.92,2.1-.32,0-.64-.05-.96-.16-5.36-1.77-10.39-3.57-15.07-5.37-2.09-.79-4.09-1.58-6.02-2.37,1.35-1.23,2.2-3.01,2.2-4.97,0-.27-.01-.54-.05-.8,1.95.8,3.99,1.61,6.09,2.42,4.59,1.75,9.53,3.53,14.78,5.28,1.61.53,2.48,2.26,1.95,3.88Z"/>
      </g>
      <g id="g20">
        <path id="path19" class="cls-2" d="M346.19,65.27c-1.91,1.05-3.8,2.08-5.71,3.1-15.99,8.58-31.98,16.18-47.68,22.91h-.01c-5.57,2.39-11.11,4.68-16.59,6.86-39.34,15.61-76.15,25.86-105.7,32.5-62.03,13.94-106.44,15.45-106.89,15.46-1.69.05-3.11-1.28-3.16-2.97-.05-1.69,1.28-3.11,2.97-3.16.44-.01,44.37-1.51,105.88-15.36,25.35-5.7,56.1-14.08,89.21-26.27,5.4-1.99,10.88-4.09,16.41-6.3h.01c20.42-8.14,41.52-17.74,62.61-29.05,1.91-1.02,3.8-2.06,5.71-3.11v.05c.07,2.23,1.22,4.17,2.93,5.35Z"/>
        <path id="path20" class="cls-2" d="M389.67,38.63c-9.03,6.14-18.15,11.94-27.32,17.4-1.87,1.11-3.74,2.2-5.62,3.29-.13-2.23-1.34-4.16-3.11-5.28,1.87-1.09,3.74-2.18,5.61-3.3,9.05-5.38,18.07-11.1,26.99-17.18,1.39-.95,3.31-.59,4.26.8.95,1.41.59,3.31-.81,4.27Z"/>
      </g>
      <g id="g22">
        <path id="path21" class="cls-2" d="M239.91,180.1c0,1.53.44,2.98,1.2,4.2-2.11.43-4.21.81-6.28,1.17-17.32,3.01-33.23,4.16-47.45,4.16-12.88,0-24.39-.94-34.3-2.33-40.25-5.62-63.43-19.06-64.4-19.64-1.46-.86-1.94-2.74-1.08-4.2.86-1.46,2.74-1.95,4.2-1.09.32.18,23.4,13.51,62.46,18.91,20.3,2.8,47.4,3.73,79.54-1.86,2.1-.36,4.21-.75,6.34-1.17-.15.6-.22,1.23-.22,1.86Z"/>
        <path id="path22" class="cls-2" d="M319.74,157.97c-20.3,9.64-39.64,16.6-57.76,21.48-2.07.56-4.13,1.09-6.18,1.59.04-.31.06-.63.06-.94,0-1.88-.65-3.61-1.75-4.97,2.07-.5,4.16-1.04,6.26-1.61,17.79-4.8,36.79-11.62,56.75-21.1,1.53-.72,3.36-.07,4.09,1.45.72,1.53.07,3.36-1.46,4.1Z"/>
      </g>
      <g id="g23">
        <path id="path23" class="cls-1" d="M141.08,166.23c-1.69,0-3.07-1.37-3.07-3.07s1.37-3.07,3.07-3.07c90.78,0,143.31-51.34,143.82-51.86,1.2-1.2,3.14-1.2,4.34,0,1.2,1.2,1.2,3.14,0,4.33-.55.55-13.8,13.67-38.76,26.92-22.97,12.2-60.6,26.73-109.4,26.73Z"/>
      </g>
      <g id="g24">
        <path id="path24" class="cls-2" d="M51.53,29.81c-4,0-7.63,1.68-10.2,4.37-1.41,1.48-2.5,3.26-3.16,5.24-.49,1.41-.75,2.93-.75,4.5,0,7.78,6.33,14.11,14.11,14.11,4.65,0,8.77-2.26,11.34-5.73,1.21-1.64,2.09-3.55,2.5-5.61.17-.9.27-1.83.27-2.77,0-7.78-6.33-14.11-14.11-14.11ZM59.5,43.92c0,2.18-.88,4.17-2.32,5.61-1.45,1.46-3.45,2.37-5.66,2.37-4.39,0-7.97-3.58-7.97-7.97,0-.49.05-.97.13-1.44.38-2.13,1.62-3.96,3.35-5.15,1.28-.87,2.82-1.39,4.49-1.39,4.36,0,7.93,3.53,7.97,7.88v.1Z"/>
      </g>
      <g id="g25">
        <path id="path25" class="cls-2" d="M362.36,56.03c-.61-2.02-1.69-3.83-3.12-5.29-2.43-2.49-5.87-4.01-9.62-3.89-7.1.22-12.7,6.17-12.48,13.27.03.99.17,1.95.42,2.87.53,2.05,1.56,3.88,2.93,5.38,2.44,2.7,6.01,4.34,9.92,4.22,7.1-.22,12.7-6.17,12.48-13.27-.03-1.15-.22-2.25-.53-3.3ZM350.22,66.46c-1.5.05-2.88-.4-4.03-1.19-1.71-1.17-2.86-3.12-2.93-5.35v-.05c-.09-3.69,2.83-6.79,6.54-6.9,1.41-.04,2.72.35,3.83,1.06,1.76,1.12,2.98,3.05,3.11,5.28.01.06.02.13.02.2.11,3.72-2.82,6.84-6.54,6.95Z"/>
      </g>
      <g id="g26">
        <path id="path26" class="cls-1" d="M65.02,102.2c-4,0-7.57,1.83-9.94,4.7-1.3,1.57-2.24,3.47-2.67,5.55h0c-.17.87-.27,1.73-.27,2.64,0,7.1,5.78,12.88,12.88,12.88,4.38,0,8.26-2.2,10.58-5.55,1.17-1.67,1.94-3.61,2.21-5.72.06-.53.1-1.07.1-1.62,0-7.1-5.78-12.88-12.88-12.88ZM71.77,115.08c0,1.96-.85,3.74-2.2,4.97-1.2,1.1-2.8,1.78-4.55,1.78-3.68,0-6.69-2.97-6.75-6.64v-.11c0-2.22,1.08-4.2,2.74-5.41,1.13-.85,2.5-1.34,4.01-1.34,3.45,0,6.31,2.6,6.7,5.95.04.26.05.53.05.8Z"/>
      </g>
      <path id="path27" class="cls-2" d="M261.98,179.45c-.1-2.13-.67-4.13-1.62-5.93-2.37-4.48-7.07-7.53-12.48-7.53-7.55,0-13.73,5.95-14.1,13.41-.01.23-.01.47-.01.7,0,1.9.38,3.7,1.05,5.36,2.12,5.13,7.18,8.75,13.05,8.75,7.78,0,14.11-6.33,14.11-14.11,0-.22,0-.44-.01-.65ZM255.79,181.06c-.48,3.95-3.84,7.02-7.91,7.02-2.86,0-5.36-1.51-6.77-3.78-.76-1.21-1.2-2.66-1.2-4.2,0-.64.07-1.26.22-1.86.85-3.5,4-6.11,7.75-6.11,2.52,0,4.76,1.18,6.22,3.01,1.1,1.36,1.75,3.09,1.75,4.97,0,.32-.02.64-.06.94h0s0,.01,0,.01Z"/>
      <g id="g28">
        <path id="path28" class="cls-1" d="M292.49,59.33c-.27-2.15-1.02-4.12-2.15-5.85h0c-2.5-3.91-6.88-6.49-11.85-6.49-7.78,0-14.11,6.33-14.11,14.11,0,.27.01.53.01.79h0c.13,2.18.75,4.22,1.74,6.02,2.4,4.34,7.04,7.3,12.35,7.3,7.78,0,14.11-6.33,14.11-14.11,0-.6-.04-1.19-.11-1.77ZM278.49,69.07c-2.52,0-4.76-1.18-6.22-3.01h0c-1.1-1.37-1.75-3.09-1.75-4.97,0-.37.02-.72.07-1.07.53-3.89,3.88-6.91,7.9-6.91,2.26,0,4.31.94,5.75,2.48,1.37,1.42,2.22,3.36,2.22,5.5,0,.11,0,.23-.01.34-.18,4.23-3.68,7.63-7.96,7.63Z"/>
      </g>
    </g>
  </g>
</svg>
